<?xml version="1.0" encoding="UTF-8"?>
<svg version="1.1" viewBox="0 0 353.81125 465.46848" xmlns="http://www.w3.org/2000/svg">
 <defs>
  <filter id="a" x="-.11486" y="-.76707" width="1.2297" height="2.5341">
   <feGaussianBlur stdDeviation="8.94915"/>
  </filter>
 </defs>
 <g transform="translate(-198.09 -299.63)">
  <path transform="matrix(1.1967 0 0 1.1967 -546.48 -168.93)" d="m895 745a93.5 14 0 1 1 -187 0 93.5 14 0 1 1 187 0z" filter="url(#a)"/>
  <path d="m370.9 356.54c-26.035-12.463-29.624 33.281-54.517 8.3873-34.354-34.354-29.155-0.63223-54.517-9.0862-22.98-7.6599-6.4486-38.171-18.172-44.033-10.806-5.4028-23.731 9.0862-23.065 9.0862 11.46 0 17.474-10.806 17.474 6.2905 0 7.8651-7.4385 18.547-2.0968 26.56 18.65 27.975 37.956-3.1907 51.722 1.3979 9.7303 3.2434 15.836 18.402 25.162 23.065 9.2192 4.6096 36.155 3.8737 41.237-6.2905 1.3814-2.7628 3.0469-9.5613 6.2905-11.183 5.0006-2.5003 8.253 0.26864 10.484-4.1936z" fill="#1a1a1a" stroke="#000" stroke-width="1.957"/>
  <path d="m359.02 380.3c-22.594-18.369-38.51 19.315-58.711 12.581-2.3557-0.78523-8.3394-32.416-26.56-20.269-10.833 7.2218-22.953 14.016-37.743 9.0862-12.651-4.2171-6.5745-22.159-15.377-26.56-8.5723-4.2861-15.007 15.746-15.377 15.377-0.9606-0.9606 2.2796-1.4893 3.4947-2.0968 18.911-9.4554 19.579 33.313 41.936 25.861 9.5634-3.1878 23.579-18.234 34.248-14.678 13.041 4.3471 18.294 27.198 37.743 17.474 9.0113-4.5057 23.964-22.277 36.345-16.775 5.4112 2.405 2.2886 3.4947 6.9894 3.4947" fill="#1a1a1a" stroke="#000" stroke-width="1.957"/>
  <path d="m404.06 516.28c-12.387 10.784-27.39 18.142-37.743 31.452-50.334 64.715 105.74 123.96 120.22 66.399 11.469-45.579-13.979-37.276-13.979-53.818 0-17.929-4.2146-37.404-21.667-46.13-23.486-11.743-41.625 4.1783-46.829 2.0968z" fill="#111"/>
  <path d="m495.31 559.97c4.5401 25.209 11.283 78.267 4.1936 117.38-1.0207 5.631-7.0611 27.465-1.3979 30.753 14.935 8.5396 18.302 13.324 15.377 16.076-9.0862 7.0041-35.748-3.957-46.829-9.7852-21.096-11.096 14.04-23.923-30.054-34.947-21.778-5.4445-53.461-3.51-64.303 18.172-5.1454 12.772-6.6115 18.861-20.269 20.968-5.2286 1.0329-37.552 11.587-41.238 2.0968-3.8013-9.7893 15.487-4.5242 20.269-18.871 2.8072-8.4216-0.0612-19.375-0.69894-27.958-0.93005-12.517-1.6659-78.128 7.933-112.6" fill="#111" stroke="#000" stroke-width="2.9356"/>
  <path d="m405.5 540.71c21.246 5.3114 24.87 7.7421 46.473 14.01 15.219 4.416 29.72 7.7248 44.949 4.0821 5.0906-1.2177 18.583-5.0305 17.467-23.506-1.1792-19.516-11.926-52.881-27.462-63.432-18.709-12.707-15.148-25.583-13.876-53.739 0.9871-21.851 2.16-46.321-6.3935-62.984-19.397-37.787-100.07-38.771-116.02 9.0862-6.0389 18.117-4.2766 44.425 0.56053 69.387 3.4412 17.758 12.05 22.719-0.56053 38.948-18.916 22.039-22.241 27.713-29.775 43.719-5.7556 11.885-7.4044 35.985 17.054 44.138 5.0047 1.6682 19.666 2.065 25.232 0.20968 13.097-1.3975 59.158-37.55 104.6-32.256" fill="#111" stroke="#000" stroke-width="2.9356"/>
  <path d="m361.92 516.42c1.7714-2.1956 4.3992-5.6183 6.1157-9.0513" fill="none" stroke="#000" stroke-linecap="round" stroke-linejoin="round" stroke-width="2.9356"/>
  <path d="m339.97 526.49c17.33-14.778 106.13-32.405 126.33-15.027" fill="none" stroke="#000" stroke-linecap="round" stroke-linejoin="round" stroke-width="2.9356"/>
  <path d="m447.69 526.88c13.836 1.8076 28.444 6.1758 28.749 3.7005 0.6388-5.194-10.273-19.464-14.084-23.275" fill="none" stroke="#000" stroke-linecap="round" stroke-linejoin="round" stroke-width="2.9356"/>
  <path d="m365.97 407.07c42.459 12.979 56.215 12.206 92.825-5.4692 11.523-0.58418 7.201 18.791-5.1299 28.275-24.86 8.71-32.936-3.141-42.456-2.654-12.02 0.61479-21.733 19.517-39.958 5.3081-15.742-12.273-14.577-26.581-5.2813-25.46z" fill="#d4aa00" stroke="#000" stroke-width="1.957"/>
  <path d="m432.21 422.38c9.7164 15.599 18.972 2.3521 15.488-3.2815-2.9008 1.2109-8.5875 3.2815-15.488 3.2815z" fill="#a40"/>
  <path d="m431.81 422.09z" fill="#fff" stroke="#000" stroke-width=".97852"/>
  <path d="m374.25 418.87c-5.0376 18.565 14.689 9.0793 15.429 4.087 0.0427-0.28782-12.892-3.0721-15.429-4.087z" fill="#a40"/>
  <path d="m390.02 422.62z" fill="#fff" stroke="#000" stroke-width=".97852"/>
 </g>
</svg>
